<mxfile host="app.diagrams.net" modified="2021-04-01T08:36:50.269Z" agent="5.0 (Macintosh; Intel Mac OS X 10_15_6) AppleWebKit/537.36 (KHTML, like Gecko) Chrome/89.0.4389.90 Safari/537.36" etag="H2hKxcHpF2ErOJeNn8aF" version="14.5.4" type="github" pages="2">
  <diagram id="xUBoegy15QkrbxKMWrDC" name="第 1 页">
    <mxGraphModel dx="2084" dy="771" grid="1" gridSize="10" guides="1" tooltips="1" connect="1" arrows="1" fold="1" page="1" pageScale="1" pageWidth="827" pageHeight="1169" math="0" shadow="0">
      <root>
        <mxCell id="0" />
        <mxCell id="1" parent="0" />
        <mxCell id="nSSbkQK5Gedf5Q33mG-h-1" value="京喜拼拼小程序" style="shape=umlLifeline;perimeter=lifelinePerimeter;container=1;collapsible=0;recursiveResize=0;rounded=0;shadow=0;strokeWidth=1;fontSize=10;fillColor=#fad9d5;strokeColor=#ae4132;" vertex="1" parent="1">
          <mxGeometry x="137" y="80" width="80" height="2250" as="geometry" />
        </mxCell>
        <mxCell id="nSSbkQK5Gedf5Q33mG-h-2" value="微信" style="shape=umlLifeline;perimeter=lifelinePerimeter;container=1;collapsible=0;recursiveResize=0;rounded=0;shadow=0;strokeWidth=1;fontSize=10;fillColor=#fad9d5;strokeColor=#ae4132;" vertex="1" parent="1">
          <mxGeometry x="297" y="80" width="70" height="2250" as="geometry" />
        </mxCell>
        <mxCell id="nSSbkQK5Gedf5Q33mG-h-3" value="登录插件" style="shape=umlLifeline;perimeter=lifelinePerimeter;container=1;collapsible=0;recursiveResize=0;rounded=0;shadow=0;strokeWidth=1;fontSize=10;fillColor=#fad9d5;strokeColor=#ae4132;" vertex="1" parent="1">
          <mxGeometry x="422.5" y="80" width="100" height="2250" as="geometry" />
        </mxCell>
        <mxCell id="nSSbkQK5Gedf5Q33mG-h-4" value="登录插件服务端" style="shape=umlLifeline;perimeter=lifelinePerimeter;container=1;collapsible=0;recursiveResize=0;rounded=0;shadow=0;strokeWidth=1;fontSize=10;fillColor=#fad9d5;strokeColor=#ae4132;" vertex="1" parent="1">
          <mxGeometry x="587" y="80" width="80" height="2250" as="geometry" />
        </mxCell>
        <mxCell id="nSSbkQK5Gedf5Q33mG-h-5" value="京喜拼拼服务端" style="shape=umlLifeline;perimeter=lifelinePerimeter;container=1;collapsible=0;recursiveResize=0;rounded=0;shadow=0;strokeWidth=1;fontSize=10;fillColor=#fad9d5;strokeColor=#ae4132;" vertex="1" parent="1">
          <mxGeometry x="750" y="80" width="80" height="2250" as="geometry" />
        </mxCell>
        <mxCell id="nSSbkQK5Gedf5Q33mG-h-6" value="" style="shape=umlLifeline;participant=umlActor;perimeter=lifelinePerimeter;whiteSpace=wrap;html=1;container=1;collapsible=0;recursiveResize=0;verticalAlign=top;spacingTop=36;outlineConnect=0;fontSize=10;align=center;size=40;fillColor=#f8cecc;strokeColor=#b85450;" vertex="1" parent="1">
          <mxGeometry x="67" y="80" width="20" height="2250" as="geometry" />
        </mxCell>
        <mxCell id="nSSbkQK5Gedf5Q33mG-h-7" value="&lt;font style=&quot;font-size: 10px&quot;&gt;B端用户&lt;/font&gt;" style="text;html=1;align=center;verticalAlign=middle;resizable=0;points=[];autosize=1;fontSize=6;" vertex="1" parent="1">
          <mxGeometry x="52" y="65" width="50" height="10" as="geometry" />
        </mxCell>
        <mxCell id="nSSbkQK5Gedf5Q33mG-h-8" value="" style="endArrow=classic;html=1;fontSize=10;" edge="1" parent="1">
          <mxGeometry width="50" height="50" relative="1" as="geometry">
            <mxPoint x="76.56" y="1089.8300000000002" as="sourcePoint" />
            <mxPoint x="176.06" y="1089.8300000000002" as="targetPoint" />
          </mxGeometry>
        </mxCell>
        <mxCell id="nSSbkQK5Gedf5Q33mG-h-9" value="1.用户退出登录" style="text;html=1;align=center;verticalAlign=middle;resizable=0;points=[];autosize=1;fontSize=10;" vertex="1" parent="1">
          <mxGeometry x="76.56" y="1068.83" width="80" height="20" as="geometry" />
        </mxCell>
        <mxCell id="nSSbkQK5Gedf5Q33mG-h-10" value="" style="endArrow=classic;html=1;fontSize=10;entryX=0.48;entryY=0.71;entryDx=0;entryDy=0;entryPerimeter=0;" edge="1" parent="1">
          <mxGeometry width="50" height="50" relative="1" as="geometry">
            <mxPoint x="176.56" y="1140" as="sourcePoint" />
            <mxPoint x="470.1599999999999" y="1139.6999999999998" as="targetPoint" />
          </mxGeometry>
        </mxCell>
        <mxCell id="nSSbkQK5Gedf5Q33mG-h-11" value="2.调登录插件方法，清楚本地登录态，删除缓存" style="text;html=1;align=center;verticalAlign=middle;resizable=0;points=[];autosize=1;fontSize=10;" vertex="1" parent="1">
          <mxGeometry x="172.56" y="1120" width="220" height="20" as="geometry" />
        </mxCell>
        <mxCell id="nSSbkQK5Gedf5Q33mG-h-12" value="" style="endArrow=classic;html=1;fontSize=10;entryX=0.505;entryY=0.853;entryDx=0;entryDy=0;entryPerimeter=0;" edge="1" parent="1">
          <mxGeometry width="50" height="50" relative="1" as="geometry">
            <mxPoint x="77.5" y="194.76999999999987" as="sourcePoint" />
            <mxPoint x="179.4000000000001" y="194.76999999999987" as="targetPoint" />
          </mxGeometry>
        </mxCell>
        <mxCell id="nSSbkQK5Gedf5Q33mG-h-13" value="2." style="text;html=1;align=center;verticalAlign=middle;resizable=0;points=[];autosize=1;fontSize=10;" vertex="1" parent="1">
          <mxGeometry x="212" y="204.9999999999999" width="20" height="20" as="geometry" />
        </mxCell>
        <mxCell id="nSSbkQK5Gedf5Q33mG-h-14" value="" style="endArrow=classic;html=1;fontSize=10;exitX=0.5;exitY=0.11;exitDx=0;exitDy=0;exitPerimeter=0;" edge="1" parent="1">
          <mxGeometry width="50" height="50" relative="1" as="geometry">
            <mxPoint x="179.5" y="226.9999999999999" as="sourcePoint" />
            <mxPoint x="474" y="226.9999999999999" as="targetPoint" />
          </mxGeometry>
        </mxCell>
        <mxCell id="nSSbkQK5Gedf5Q33mG-h-15" value="2.跳转登录页" style="edgeLabel;resizable=0;html=1;align=left;verticalAlign=bottom;" connectable="0" vertex="1" parent="1">
          <mxGeometry x="193.5" y="226.10000000000002" as="geometry" />
        </mxCell>
        <mxCell id="nSSbkQK5Gedf5Q33mG-h-16" value="&lt;span style=&quot;color: rgb(0 , 0 , 0) ; font-family: &amp;#34;helvetica&amp;#34; ; font-size: 10px ; font-style: normal ; font-weight: 400 ; letter-spacing: normal ; text-align: center ; text-indent: 0px ; text-transform: none ; word-spacing: 0px ; background-color: rgb(248 , 249 , 250) ; display: inline ; float: none&quot;&gt;1.触发登录场景：点击登录按钮&lt;/span&gt;" style="text;html=1;strokeColor=none;fillColor=none;align=center;verticalAlign=middle;whiteSpace=wrap;rounded=0;fontSize=10;" vertex="1" parent="1">
          <mxGeometry x="77" y="161.9999999999999" width="106" height="20" as="geometry" />
        </mxCell>
        <mxCell id="nSSbkQK5Gedf5Q33mG-h-17" value="" style="endArrow=classic;html=1;fontSize=10;exitX=0.521;exitY=0.52;exitDx=0;exitDy=0;exitPerimeter=0;" edge="1" parent="1">
          <mxGeometry width="50" height="50" relative="1" as="geometry">
            <mxPoint x="474.97000000000025" y="269" as="sourcePoint" />
            <mxPoint x="332.4203448275862" y="269" as="targetPoint" />
          </mxGeometry>
        </mxCell>
        <mxCell id="nSSbkQK5Gedf5Q33mG-h-18" value="3.获取手机号授权" style="text;html=1;align=center;verticalAlign=middle;resizable=0;points=[];autosize=1;fontSize=10;" vertex="1" parent="1">
          <mxGeometry x="356.55999999999995" y="250" width="90" height="20" as="geometry" />
        </mxCell>
        <mxCell id="nSSbkQK5Gedf5Q33mG-h-19" value="" style="endArrow=classic;html=1;fontSize=10;entryX=0.507;entryY=0.558;entryDx=0;entryDy=0;entryPerimeter=0;" edge="1" parent="1">
          <mxGeometry width="50" height="50" relative="1" as="geometry">
            <mxPoint x="333.52380952380963" y="303" as="sourcePoint" />
            <mxPoint x="473.9899999999998" y="303" as="targetPoint" />
          </mxGeometry>
        </mxCell>
        <mxCell id="nSSbkQK5Gedf5Q33mG-h-20" value="4.手机号授权成功" style="text;html=1;align=center;verticalAlign=middle;resizable=0;points=[];autosize=1;fontSize=10;" vertex="1" parent="1">
          <mxGeometry x="356.55999999999995" y="284" width="90" height="20" as="geometry" />
        </mxCell>
        <mxCell id="nSSbkQK5Gedf5Q33mG-h-21" value="" style="endArrow=classic;html=1;fontSize=10;" edge="1" parent="1">
          <mxGeometry width="50" height="50" relative="1" as="geometry">
            <mxPoint x="472.50380952380965" y="331" as="sourcePoint" />
            <mxPoint x="629" y="331" as="targetPoint" />
          </mxGeometry>
        </mxCell>
        <mxCell id="nSSbkQK5Gedf5Q33mG-h-22" value="5.调接口，手机号登录" style="text;html=1;align=center;verticalAlign=middle;resizable=0;points=[];autosize=1;fontSize=10;" vertex="1" parent="1">
          <mxGeometry x="485.53999999999996" y="312" width="110" height="20" as="geometry" />
        </mxCell>
        <mxCell id="nSSbkQK5Gedf5Q33mG-h-23" value="" style="edgeStyle=segmentEdgeStyle;endArrow=classic;html=1;fontSize=10;entryX=0.5;entryY=0.606;entryDx=0;entryDy=0;entryPerimeter=0;" edge="1" parent="1">
          <mxGeometry width="50" height="50" relative="1" as="geometry">
            <mxPoint x="626.0999999999999" y="386.4699999999999" as="sourcePoint" />
            <mxPoint x="626" y="406.44999999999993" as="targetPoint" />
            <Array as="points">
              <mxPoint x="656" y="386.4699999999999" />
              <mxPoint x="656" y="406.4699999999999" />
            </Array>
          </mxGeometry>
        </mxCell>
        <mxCell id="nSSbkQK5Gedf5Q33mG-h-24" value="&lt;span style=&quot;color: rgb(0 , 0 , 0) ; font-family: &amp;#34;helvetica&amp;#34; ; font-size: 10px ; font-style: normal ; font-weight: 400 ; letter-spacing: normal ; text-align: center ; text-indent: 0px ; text-transform: none ; word-spacing: 0px ; background-color: rgb(248 , 249 , 250) ; display: inline ; float: none&quot;&gt;6.账号是否风控&lt;/span&gt;" style="text;whiteSpace=wrap;html=1;fontSize=10;" vertex="1" parent="1">
          <mxGeometry x="631" y="363.37" width="150" height="24" as="geometry" />
        </mxCell>
        <mxCell id="nSSbkQK5Gedf5Q33mG-h-25" value="" style="endArrow=classic;html=1;fontSize=10;exitX=0.5;exitY=0.491;exitDx=0;exitDy=0;exitPerimeter=0;" edge="1" parent="1">
          <mxGeometry width="50" height="50" relative="1" as="geometry">
            <mxPoint x="627.7799999999997" y="437.78000000000077" as="sourcePoint" />
            <mxPoint x="473.0022222222224" y="437.78000000000077" as="targetPoint" />
          </mxGeometry>
        </mxCell>
        <mxCell id="nSSbkQK5Gedf5Q33mG-h-26" value="跳转风控页面" style="text;html=1;align=center;verticalAlign=middle;resizable=0;points=[];autosize=1;fontSize=10;" vertex="1" parent="1">
          <mxGeometry x="522.78" y="416.5000000000001" width="80" height="20" as="geometry" />
        </mxCell>
        <mxCell id="nSSbkQK5Gedf5Q33mG-h-27" value="" style="endArrow=classic;html=1;fontSize=10;" edge="1" parent="1">
          <mxGeometry width="50" height="50" relative="1" as="geometry">
            <mxPoint x="471.50380952380965" y="472.37" as="sourcePoint" />
            <mxPoint x="628" y="472.37" as="targetPoint" />
          </mxGeometry>
        </mxCell>
        <mxCell id="nSSbkQK5Gedf5Q33mG-h-28" value="风控校验成功" style="text;html=1;align=center;verticalAlign=middle;resizable=0;points=[];autosize=1;fontSize=10;" vertex="1" parent="1">
          <mxGeometry x="475.49999999999994" y="453.37" width="80" height="20" as="geometry" />
        </mxCell>
        <mxCell id="nSSbkQK5Gedf5Q33mG-h-29" value="" style="edgeStyle=segmentEdgeStyle;endArrow=classic;html=1;fontSize=10;entryX=0.5;entryY=0.606;entryDx=0;entryDy=0;entryPerimeter=0;" edge="1" parent="1">
          <mxGeometry width="50" height="50" relative="1" as="geometry">
            <mxPoint x="627.0999999999999" y="502" as="sourcePoint" />
            <mxPoint x="627" y="521.98" as="targetPoint" />
            <Array as="points">
              <mxPoint x="657" y="502" />
              <mxPoint x="657" y="522" />
            </Array>
          </mxGeometry>
        </mxCell>
        <mxCell id="nSSbkQK5Gedf5Q33mG-h-30" value="无风控" style="text;html=1;align=center;verticalAlign=middle;resizable=0;points=[];autosize=1;fontSize=10;" vertex="1" parent="1">
          <mxGeometry x="621" y="480" width="50" height="20" as="geometry" />
        </mxCell>
        <mxCell id="nSSbkQK5Gedf5Q33mG-h-31" value="7.接口返回登录成功" style="text;html=1;align=center;verticalAlign=middle;resizable=0;points=[];autosize=1;fontSize=10;" vertex="1" parent="1">
          <mxGeometry x="514.5899999999999" y="560.0000000000003" width="100" height="20" as="geometry" />
        </mxCell>
        <mxCell id="nSSbkQK5Gedf5Q33mG-h-32" value="" style="endArrow=classic;html=1;fontSize=10;exitX=0.488;exitY=0.55;exitDx=0;exitDy=0;exitPerimeter=0;" edge="1" parent="1">
          <mxGeometry width="50" height="50" relative="1" as="geometry">
            <mxPoint x="628.63" y="582.2800000000001" as="sourcePoint" />
            <mxPoint x="473.09" y="582.2800000000001" as="targetPoint" />
          </mxGeometry>
        </mxCell>
        <mxCell id="nSSbkQK5Gedf5Q33mG-h-33" value="" style="endArrow=classic;html=1;fontSize=10;exitX=0.5;exitY=0.243;exitDx=0;exitDy=0;exitPerimeter=0;" edge="1" parent="1">
          <mxGeometry width="50" height="50" relative="1" as="geometry">
            <mxPoint x="475" y="617.75" as="sourcePoint" />
            <mxPoint x="176.5" y="617.75" as="targetPoint" />
          </mxGeometry>
        </mxCell>
        <mxCell id="nSSbkQK5Gedf5Q33mG-h-34" value="8.登录成功下发登录态，存到小程序缓存" style="text;html=1;align=center;verticalAlign=middle;resizable=0;points=[];autosize=1;fontSize=10;" vertex="1" parent="1">
          <mxGeometry x="193.5" y="599.0000000000001" width="190" height="20" as="geometry" />
        </mxCell>
        <mxCell id="nSSbkQK5Gedf5Q33mG-h-35" value="" style="edgeStyle=segmentEdgeStyle;endArrow=classic;html=1;fontSize=10;" edge="1" parent="1">
          <mxGeometry width="50" height="50" relative="1" as="geometry">
            <mxPoint x="178.59999999999988" y="664" as="sourcePoint" />
            <mxPoint x="178.49999999999997" y="684" as="targetPoint" />
            <Array as="points">
              <mxPoint x="208.49999999999997" y="664" />
              <mxPoint x="208.49999999999997" y="684" />
            </Array>
          </mxGeometry>
        </mxCell>
        <mxCell id="nSSbkQK5Gedf5Q33mG-h-36" value="9.跳转用户授权页获取微信授权" style="text;html=1;align=center;verticalAlign=middle;resizable=0;points=[];autosize=1;fontSize=10;" vertex="1" parent="1">
          <mxGeometry x="174.99999999999997" y="645" width="150" height="20" as="geometry" />
        </mxCell>
        <mxCell id="nSSbkQK5Gedf5Q33mG-h-37" value="" style="endArrow=classic;html=1;fontSize=10;exitX=0.538;exitY=0.284;exitDx=0;exitDy=0;exitPerimeter=0;entryX=0.538;entryY=0.285;entryDx=0;entryDy=0;entryPerimeter=0;" edge="1" parent="1">
          <mxGeometry width="50" height="50" relative="1" as="geometry">
            <mxPoint x="176.99999999999997" y="790" as="sourcePoint" />
            <mxPoint x="790" y="792.25" as="targetPoint" />
          </mxGeometry>
        </mxCell>
        <mxCell id="nSSbkQK5Gedf5Q33mG-h-38" value="10.获取微信授权" style="text;html=1;align=center;verticalAlign=middle;resizable=0;points=[];autosize=1;fontSize=10;" vertex="1" parent="1">
          <mxGeometry x="211.99999999999997" y="703" width="90" height="20" as="geometry" />
        </mxCell>
        <mxCell id="nSSbkQK5Gedf5Q33mG-h-39" value="" style="endArrow=classic;html=1;fontSize=10;" edge="1" parent="1">
          <mxGeometry width="50" height="50" relative="1" as="geometry">
            <mxPoint x="176" y="724" as="sourcePoint" />
            <mxPoint x="329.5" y="724" as="targetPoint" />
          </mxGeometry>
        </mxCell>
        <mxCell id="nSSbkQK5Gedf5Q33mG-h-40" value="11.微信授权成功" style="text;html=1;align=center;verticalAlign=middle;resizable=0;points=[];autosize=1;fontSize=10;" vertex="1" parent="1">
          <mxGeometry x="211.48999999999998" y="740" width="90" height="20" as="geometry" />
        </mxCell>
        <mxCell id="nSSbkQK5Gedf5Q33mG-h-41" value="" style="endArrow=classic;html=1;fontSize=10;exitX=0.514;exitY=0.303;exitDx=0;exitDy=0;exitPerimeter=0;" edge="1" parent="1">
          <mxGeometry width="50" height="50" relative="1" as="geometry">
            <mxPoint x="332.98" y="759.75" as="sourcePoint" />
            <mxPoint x="176.5" y="759.75" as="targetPoint" />
          </mxGeometry>
        </mxCell>
        <mxCell id="nSSbkQK5Gedf5Q33mG-h-42" value="" style="rounded=1;arcSize=10;fillColor=none;gradientColor=none;strokeWidth=2;fontSize=10;align=center;strokeColor=#9AC7BF;" vertex="1" parent="1">
          <mxGeometry x="461" y="360" width="298" height="180" as="geometry" />
        </mxCell>
        <mxCell id="nSSbkQK5Gedf5Q33mG-h-43" value="" style="endArrow=classic;html=1;fontSize=10;" edge="1" parent="1">
          <mxGeometry width="50" height="50" relative="1" as="geometry">
            <mxPoint x="177.5" y="831" as="sourcePoint" />
            <mxPoint x="787" y="831" as="targetPoint" />
          </mxGeometry>
        </mxCell>
        <mxCell id="nSSbkQK5Gedf5Q33mG-h-44" value="13.调接口，用户打标" style="text;html=1;align=center;verticalAlign=middle;resizable=0;points=[];autosize=1;fontSize=10;" vertex="1" parent="1">
          <mxGeometry x="332" y="812" width="110" height="20" as="geometry" />
        </mxCell>
        <mxCell id="nSSbkQK5Gedf5Q33mG-h-45" value="&lt;div style=&quot;text-align: center&quot;&gt;&lt;span&gt;&lt;font face=&quot;helvetica&quot;&gt;12.提供用户信息：头像昵称，unionID等&lt;/font&gt;&lt;/span&gt;&lt;/div&gt;" style="text;whiteSpace=wrap;html=1;fontSize=10;" vertex="1" parent="1">
          <mxGeometry x="356.56" y="770" width="207" height="30" as="geometry" />
        </mxCell>
        <mxCell id="nSSbkQK5Gedf5Q33mG-h-46" value="" style="endArrow=classic;html=1;fontSize=10;exitX=0.513;exitY=0.35;exitDx=0;exitDy=0;exitPerimeter=0;" edge="1" parent="1" source="nSSbkQK5Gedf5Q33mG-h-1" target="nSSbkQK5Gedf5Q33mG-h-6">
          <mxGeometry width="50" height="50" relative="1" as="geometry">
            <mxPoint x="380" y="700" as="sourcePoint" />
            <mxPoint x="430" y="650" as="targetPoint" />
          </mxGeometry>
        </mxCell>
        <mxCell id="nSSbkQK5Gedf5Q33mG-h-47" value="14.返回跳转登录前页面" style="text;html=1;align=center;verticalAlign=middle;resizable=0;points=[];autosize=1;fontSize=10;" vertex="1" parent="1">
          <mxGeometry x="70" y="846" width="120" height="20" as="geometry" />
        </mxCell>
        <mxCell id="nSSbkQK5Gedf5Q33mG-h-48" value="&lt;font color=&quot;#330066&quot;&gt;点击登录&lt;/font&gt;" style="shape=umlFrame;whiteSpace=wrap;html=1;strokeWidth=2;fillColor=none;gradientColor=none;fontSize=10;align=center;strokeColor=#B5739D;" vertex="1" parent="1">
          <mxGeometry x="-1" y="129.5" width="811" height="810.5" as="geometry" />
        </mxCell>
        <mxCell id="nSSbkQK5Gedf5Q33mG-h-49" value="&lt;font color=&quot;#006600&quot;&gt;退出登录&lt;/font&gt;" style="shape=umlFrame;whiteSpace=wrap;html=1;strokeColor=#97D077;strokeWidth=2;fillColor=none;gradientColor=none;fontSize=10;align=center;" vertex="1" parent="1">
          <mxGeometry x="-3.44" y="1020" width="810" height="169.17" as="geometry" />
        </mxCell>
      </root>
    </mxGraphModel>
  </diagram>
  <diagram name="Page-2" id="l5J86_nozJfJg7YQ1Tzn">
    <mxGraphModel dx="2407" dy="1074" grid="1" gridSize="10" guides="1" tooltips="1" connect="1" arrows="1" fold="1" page="1" pageScale="1" pageWidth="827" pageHeight="1169" math="0" shadow="0">
      <root>
        <mxCell id="-J8hgq7mkh7S_dgd3K_y-0" />
        <mxCell id="-J8hgq7mkh7S_dgd3K_y-1" parent="-J8hgq7mkh7S_dgd3K_y-0" />
        <mxCell id="aDwRY3r6dhl7otKRrA_F-0" value="京喜拼拼小程序" style="shape=umlLifeline;perimeter=lifelinePerimeter;container=1;collapsible=0;recursiveResize=0;rounded=0;shadow=0;strokeWidth=1;fontSize=10;fillColor=#fad9d5;strokeColor=#ae4132;" vertex="1" parent="-J8hgq7mkh7S_dgd3K_y-1">
          <mxGeometry x="137" y="80" width="80" height="2250" as="geometry" />
        </mxCell>
        <mxCell id="aDwRY3r6dhl7otKRrA_F-7" value="微信" style="shape=umlLifeline;perimeter=lifelinePerimeter;container=1;collapsible=0;recursiveResize=0;rounded=0;shadow=0;strokeWidth=1;fontSize=10;fillColor=#fad9d5;strokeColor=#ae4132;" vertex="1" parent="-J8hgq7mkh7S_dgd3K_y-1">
          <mxGeometry x="297" y="80" width="70" height="2250" as="geometry" />
        </mxCell>
        <mxCell id="aDwRY3r6dhl7otKRrA_F-8" value="登录插件" style="shape=umlLifeline;perimeter=lifelinePerimeter;container=1;collapsible=0;recursiveResize=0;rounded=0;shadow=0;strokeWidth=1;fontSize=10;fillColor=#fad9d5;strokeColor=#ae4132;" vertex="1" parent="-J8hgq7mkh7S_dgd3K_y-1">
          <mxGeometry x="437" y="80" width="70" height="2250" as="geometry" />
        </mxCell>
        <mxCell id="aDwRY3r6dhl7otKRrA_F-9" value="登录插件服务端" style="shape=umlLifeline;perimeter=lifelinePerimeter;container=1;collapsible=0;recursiveResize=0;rounded=0;shadow=0;strokeWidth=1;fontSize=10;fillColor=#fad9d5;strokeColor=#ae4132;" vertex="1" parent="-J8hgq7mkh7S_dgd3K_y-1">
          <mxGeometry x="587" y="80" width="80" height="2250" as="geometry" />
        </mxCell>
        <mxCell id="aDwRY3r6dhl7otKRrA_F-10" value="京喜拼拼服务端" style="shape=umlLifeline;perimeter=lifelinePerimeter;container=1;collapsible=0;recursiveResize=0;rounded=0;shadow=0;strokeWidth=1;fontSize=10;fillColor=#fad9d5;strokeColor=#ae4132;" vertex="1" parent="-J8hgq7mkh7S_dgd3K_y-1">
          <mxGeometry x="750" y="80" width="80" height="2250" as="geometry" />
        </mxCell>
        <mxCell id="mUH_KSAL7D9li16hF1Gg-1" value="&lt;font color=&quot;#663300&quot;&gt;静默登录校验&lt;/font&gt;" style="shape=umlFrame;whiteSpace=wrap;html=1;strokeWidth=2;fillColor=none;gradientColor=none;fontSize=10;align=center;strokeColor=#FFB570;" vertex="1" parent="aDwRY3r6dhl7otKRrA_F-10">
          <mxGeometry x="-230" y="137" width="270" height="243" as="geometry" />
        </mxCell>
        <mxCell id="aDwRY3r6dhl7otKRrA_F-17" value="" style="shape=umlLifeline;participant=umlActor;perimeter=lifelinePerimeter;whiteSpace=wrap;html=1;container=1;collapsible=0;recursiveResize=0;verticalAlign=top;spacingTop=36;outlineConnect=0;fontSize=10;align=center;size=40;fillColor=#f8cecc;strokeColor=#b85450;" vertex="1" parent="-J8hgq7mkh7S_dgd3K_y-1">
          <mxGeometry x="67" y="80" width="20" height="2250" as="geometry" />
        </mxCell>
        <mxCell id="aDwRY3r6dhl7otKRrA_F-18" value="&lt;font style=&quot;font-size: 10px&quot;&gt;C端用户&lt;/font&gt;" style="text;html=1;align=center;verticalAlign=middle;resizable=0;points=[];autosize=1;fontSize=6;" vertex="1" parent="-J8hgq7mkh7S_dgd3K_y-1">
          <mxGeometry x="52" y="65" width="50" height="10" as="geometry" />
        </mxCell>
        <mxCell id="aDwRY3r6dhl7otKRrA_F-33" value="" style="endArrow=block;endFill=1;html=1;edgeStyle=orthogonalEdgeStyle;align=left;verticalAlign=top;fontSize=10;" edge="1" parent="-J8hgq7mkh7S_dgd3K_y-1">
          <mxGeometry x="-1" relative="1" as="geometry">
            <mxPoint x="472" y="211" as="sourcePoint" />
            <mxPoint x="627" y="211" as="targetPoint" />
            <Array as="points">
              <mxPoint x="627" y="211" />
            </Array>
          </mxGeometry>
        </mxCell>
        <mxCell id="aDwRY3r6dhl7otKRrA_F-34" value="3.调静默登录接口" style="edgeLabel;resizable=0;html=1;align=left;verticalAlign=bottom;" connectable="0" vertex="1" parent="aDwRY3r6dhl7otKRrA_F-33">
          <mxGeometry x="-1" relative="1" as="geometry">
            <mxPoint x="12" y="-2" as="offset" />
          </mxGeometry>
        </mxCell>
        <mxCell id="aDwRY3r6dhl7otKRrA_F-51" value="是，隐式授权" style="text;html=1;align=center;verticalAlign=middle;resizable=0;points=[];autosize=1;fontSize=10;" vertex="1" parent="-J8hgq7mkh7S_dgd3K_y-1">
          <mxGeometry x="621" y="279" width="80" height="20" as="geometry" />
        </mxCell>
        <mxCell id="aDwRY3r6dhl7otKRrA_F-52" value="&lt;meta charset=&quot;utf-8&quot;&gt;&lt;span style=&quot;color: rgb(0, 0, 0); font-family: helvetica; font-size: 10px; font-style: normal; font-weight: 400; letter-spacing: normal; text-align: center; text-indent: 0px; text-transform: none; word-spacing: 0px; background-color: rgb(248, 249, 250); display: inline; float: none;&quot;&gt;4.是否隐式授权获取unionid&lt;/span&gt;" style="text;whiteSpace=wrap;html=1;fontSize=10;" vertex="1" parent="-J8hgq7mkh7S_dgd3K_y-1">
          <mxGeometry x="632" y="222" width="150" height="25" as="geometry" />
        </mxCell>
        <mxCell id="aDwRY3r6dhl7otKRrA_F-60" value="" style="edgeStyle=segmentEdgeStyle;endArrow=classic;html=1;fontSize=10;entryX=0.5;entryY=0.606;entryDx=0;entryDy=0;entryPerimeter=0;" edge="1" parent="-J8hgq7mkh7S_dgd3K_y-1">
          <mxGeometry width="50" height="50" relative="1" as="geometry">
            <mxPoint x="627.1" y="299" as="sourcePoint" />
            <mxPoint x="627" y="318.98" as="targetPoint" />
            <Array as="points">
              <mxPoint x="657" y="299" />
              <mxPoint x="657" y="319" />
            </Array>
          </mxGeometry>
        </mxCell>
        <mxCell id="aDwRY3r6dhl7otKRrA_F-68" value="" style="endArrow=classic;html=1;fontSize=10;exitX=0.5;exitY=0.11;exitDx=0;exitDy=0;exitPerimeter=0;" edge="1" parent="-J8hgq7mkh7S_dgd3K_y-1">
          <mxGeometry width="50" height="50" relative="1" as="geometry">
            <mxPoint x="177" y="189.89999999999998" as="sourcePoint" />
            <mxPoint x="471.5" y="189.89999999999998" as="targetPoint" />
          </mxGeometry>
        </mxCell>
        <mxCell id="aDwRY3r6dhl7otKRrA_F-69" value="2.小程序启动调用登录插件静默登录方法" style="edgeLabel;resizable=0;html=1;align=left;verticalAlign=bottom;" connectable="0" vertex="1" parent="-J8hgq7mkh7S_dgd3K_y-1">
          <mxGeometry x="191" y="190.00000000000006" as="geometry" />
        </mxCell>
        <mxCell id="aDwRY3r6dhl7otKRrA_F-70" value="" style="endArrow=classic;html=1;fontSize=10;entryX=0.488;entryY=0.088;entryDx=0;entryDy=0;entryPerimeter=0;" edge="1" parent="-J8hgq7mkh7S_dgd3K_y-1">
          <mxGeometry width="50" height="50" relative="1" as="geometry">
            <mxPoint x="76.5" y="170.91999999999996" as="sourcePoint" />
            <mxPoint x="176.03999999999996" y="170.91999999999996" as="targetPoint" />
          </mxGeometry>
        </mxCell>
        <mxCell id="aDwRY3r6dhl7otKRrA_F-71" value="1.&lt;span style=&quot;font-size: 10px; text-align: center; background-color: rgb(248, 249, 250);&quot;&gt;用户进入小程序&lt;/span&gt;" style="edgeLabel;resizable=0;html=1;align=left;verticalAlign=bottom;fontSize=10;" connectable="0" vertex="1" parent="-J8hgq7mkh7S_dgd3K_y-1">
          <mxGeometry x="84" y="170" as="geometry" />
        </mxCell>
        <mxCell id="aDwRY3r6dhl7otKRrA_F-75" value="" style="edgeStyle=segmentEdgeStyle;endArrow=classic;html=1;fontSize=10;entryX=0.5;entryY=0.606;entryDx=0;entryDy=0;entryPerimeter=0;" edge="1" parent="-J8hgq7mkh7S_dgd3K_y-1">
          <mxGeometry width="50" height="50" relative="1" as="geometry">
            <mxPoint x="628.0999999999999" y="244" as="sourcePoint" />
            <mxPoint x="628" y="263.98" as="targetPoint" />
            <Array as="points">
              <mxPoint x="658" y="244" />
              <mxPoint x="658" y="264" />
            </Array>
          </mxGeometry>
        </mxCell>
        <mxCell id="aDwRY3r6dhl7otKRrA_F-78" value="" style="edgeStyle=segmentEdgeStyle;endArrow=classic;html=1;fontSize=10;entryX=0.5;entryY=0.606;entryDx=0;entryDy=0;entryPerimeter=0;" edge="1" parent="-J8hgq7mkh7S_dgd3K_y-1">
          <mxGeometry width="50" height="50" relative="1" as="geometry">
            <mxPoint x="627.0999999999999" y="364" as="sourcePoint" />
            <mxPoint x="627" y="383.98000000000013" as="targetPoint" />
            <Array as="points">
              <mxPoint x="657" y="364" />
              <mxPoint x="657" y="384" />
            </Array>
          </mxGeometry>
        </mxCell>
        <mxCell id="aDwRY3r6dhl7otKRrA_F-79" value="&lt;span style=&quot;color: rgb(0 , 0 , 0) ; font-family: &amp;#34;helvetica&amp;#34; ; font-size: 10px ; font-style: normal ; font-weight: 400 ; letter-spacing: normal ; text-align: center ; text-indent: 0px ; text-transform: none ; word-spacing: 0px ; background-color: rgb(248 , 249 , 250) ; display: inline ; float: none&quot;&gt;5.是否绑定京东账号&lt;/span&gt;" style="text;whiteSpace=wrap;html=1;fontSize=10;" vertex="1" parent="-J8hgq7mkh7S_dgd3K_y-1">
          <mxGeometry x="632" y="342" width="150" height="25" as="geometry" />
        </mxCell>
        <mxCell id="aDwRY3r6dhl7otKRrA_F-82" value="" style="edgeStyle=segmentEdgeStyle;endArrow=classic;html=1;fontSize=10;entryX=0.5;entryY=0.606;entryDx=0;entryDy=0;entryPerimeter=0;" edge="1" parent="-J8hgq7mkh7S_dgd3K_y-1">
          <mxGeometry width="50" height="50" relative="1" as="geometry">
            <mxPoint x="627.0999999999999" y="425" as="sourcePoint" />
            <mxPoint x="627" y="444.98000000000013" as="targetPoint" />
            <Array as="points">
              <mxPoint x="657" y="425" />
              <mxPoint x="657" y="445" />
            </Array>
          </mxGeometry>
        </mxCell>
        <mxCell id="aDwRY3r6dhl7otKRrA_F-84" value="已绑定" style="text;html=1;align=center;verticalAlign=middle;resizable=0;points=[];autosize=1;fontSize=10;" vertex="1" parent="-J8hgq7mkh7S_dgd3K_y-1">
          <mxGeometry x="621" y="403" width="50" height="20" as="geometry" />
        </mxCell>
        <mxCell id="aDwRY3r6dhl7otKRrA_F-99" value="8.静默登录成功下发登录态，存到小程序缓存，登录失败无处理" style="text;html=1;align=center;verticalAlign=middle;resizable=0;points=[];autosize=1;fontSize=10;" vertex="1" parent="-J8hgq7mkh7S_dgd3K_y-1">
          <mxGeometry x="183.88" y="700" width="290" height="20" as="geometry" />
        </mxCell>
        <mxCell id="aDwRY3r6dhl7otKRrA_F-101" value="" style="endArrow=classic;html=1;fontSize=10;" edge="1" parent="-J8hgq7mkh7S_dgd3K_y-1">
          <mxGeometry width="50" height="50" relative="1" as="geometry">
            <mxPoint x="472.38" y="720" as="sourcePoint" />
            <mxPoint x="177.38" y="720" as="targetPoint" />
            <Array as="points">
              <mxPoint x="317.88" y="720" />
            </Array>
          </mxGeometry>
        </mxCell>
        <mxCell id="aDwRY3r6dhl7otKRrA_F-106" value="" style="rounded=1;arcSize=10;fillColor=none;gradientColor=none;strokeWidth=2;fontSize=10;align=center;strokeColor=#7EA6E0;" vertex="1" parent="-J8hgq7mkh7S_dgd3K_y-1">
          <mxGeometry x="610" y="227" width="167" height="103" as="geometry" />
        </mxCell>
        <mxCell id="aDwRY3r6dhl7otKRrA_F-107" value="" style="rounded=1;arcSize=10;fillColor=none;gradientColor=none;strokeWidth=2;fontSize=10;align=center;strokeColor=#7EA6E0;" vertex="1" parent="-J8hgq7mkh7S_dgd3K_y-1">
          <mxGeometry x="610" y="343" width="167" height="110" as="geometry" />
        </mxCell>
        <mxCell id="aDwRY3r6dhl7otKRrA_F-113" value="" style="endArrow=classic;html=1;fontSize=10;exitX=0.5;exitY=0.491;exitDx=0;exitDy=0;exitPerimeter=0;" edge="1" parent="-J8hgq7mkh7S_dgd3K_y-1">
          <mxGeometry width="50" height="50" relative="1" as="geometry">
            <mxPoint x="627.88" y="690.2800000000001" as="sourcePoint" />
            <mxPoint x="473.1022222222223" y="690.2800000000001" as="targetPoint" />
          </mxGeometry>
        </mxCell>
        <mxCell id="aDwRY3r6dhl7otKRrA_F-114" value="7.接口返回登录成功或失败" style="text;html=1;align=center;verticalAlign=middle;resizable=0;points=[];autosize=1;fontSize=10;" vertex="1" parent="-J8hgq7mkh7S_dgd3K_y-1">
          <mxGeometry x="497.88" y="670" width="130" height="20" as="geometry" />
        </mxCell>
        <mxCell id="aDwRY3r6dhl7otKRrA_F-116" value="" style="endArrow=classic;html=1;fontSize=10;" edge="1" parent="-J8hgq7mkh7S_dgd3K_y-1">
          <mxGeometry width="50" height="50" relative="1" as="geometry">
            <mxPoint x="177.88" y="755" as="sourcePoint" />
            <mxPoint x="787.38" y="755" as="targetPoint" />
          </mxGeometry>
        </mxCell>
        <mxCell id="aDwRY3r6dhl7otKRrA_F-117" value="9.登录成功，接口请求cookie中带上pt_pin以及pt_key，登录成功回调里调接口进行用户打标" style="text;html=1;align=center;verticalAlign=middle;resizable=0;points=[];autosize=1;fontSize=10;" vertex="1" parent="-J8hgq7mkh7S_dgd3K_y-1">
          <mxGeometry x="176" y="735" width="420" height="20" as="geometry" />
        </mxCell>
        <mxCell id="aDwRY3r6dhl7otKRrA_F-119" value="" style="endArrow=classic;html=1;fontSize=10;" edge="1" parent="-J8hgq7mkh7S_dgd3K_y-1">
          <mxGeometry width="50" height="50" relative="1" as="geometry">
            <mxPoint x="77" y="952.83" as="sourcePoint" />
            <mxPoint x="176.5" y="952.83" as="targetPoint" />
          </mxGeometry>
        </mxCell>
        <mxCell id="aDwRY3r6dhl7otKRrA_F-121" value="1.用户退出登录" style="text;html=1;align=center;verticalAlign=middle;resizable=0;points=[];autosize=1;fontSize=10;" vertex="1" parent="-J8hgq7mkh7S_dgd3K_y-1">
          <mxGeometry x="77" y="931.83" width="80" height="20" as="geometry" />
        </mxCell>
        <mxCell id="aDwRY3r6dhl7otKRrA_F-122" value="" style="endArrow=classic;html=1;fontSize=10;" edge="1" parent="-J8hgq7mkh7S_dgd3K_y-1">
          <mxGeometry width="50" height="50" relative="1" as="geometry">
            <mxPoint x="177" y="993.83" as="sourcePoint" />
            <mxPoint x="790" y="995" as="targetPoint" />
          </mxGeometry>
        </mxCell>
        <mxCell id="aDwRY3r6dhl7otKRrA_F-123" value="2.调接口，解除用户微信账号与京东账号的绑定" style="text;html=1;align=center;verticalAlign=middle;resizable=0;points=[];autosize=1;fontSize=10;" vertex="1" parent="-J8hgq7mkh7S_dgd3K_y-1">
          <mxGeometry x="177" y="973.83" width="220" height="20" as="geometry" />
        </mxCell>
        <mxCell id="aDwRY3r6dhl7otKRrA_F-125" value="" style="endArrow=classic;html=1;fontSize=10;entryX=0.48;entryY=0.71;entryDx=0;entryDy=0;entryPerimeter=0;" edge="1" parent="-J8hgq7mkh7S_dgd3K_y-1">
          <mxGeometry width="50" height="50" relative="1" as="geometry">
            <mxPoint x="177" y="1034.83" as="sourcePoint" />
            <mxPoint x="470.5999999999999" y="1034.5299999999997" as="targetPoint" />
          </mxGeometry>
        </mxCell>
        <mxCell id="aDwRY3r6dhl7otKRrA_F-126" value="3.调登录插件方法，清楚本地登录态，删除缓存" style="text;html=1;align=center;verticalAlign=middle;resizable=0;points=[];autosize=1;fontSize=10;" vertex="1" parent="-J8hgq7mkh7S_dgd3K_y-1">
          <mxGeometry x="177" y="1014.83" width="220" height="20" as="geometry" />
        </mxCell>
        <mxCell id="aDwRY3r6dhl7otKRrA_F-131" value="" style="endArrow=classic;html=1;fontSize=10;entryX=0.505;entryY=0.853;entryDx=0;entryDy=0;entryPerimeter=0;" edge="1" parent="-J8hgq7mkh7S_dgd3K_y-1">
          <mxGeometry width="50" height="50" relative="1" as="geometry">
            <mxPoint x="75.5" y="1250.6" as="sourcePoint" />
            <mxPoint x="177.39999999999998" y="1250.6" as="targetPoint" />
          </mxGeometry>
        </mxCell>
        <mxCell id="aDwRY3r6dhl7otKRrA_F-134" value="2." style="text;html=1;align=center;verticalAlign=middle;resizable=0;points=[];autosize=1;fontSize=10;" vertex="1" parent="-J8hgq7mkh7S_dgd3K_y-1">
          <mxGeometry x="210" y="1260.83" width="20" height="20" as="geometry" />
        </mxCell>
        <mxCell id="Ohw_9S8v5fQraYpqyN4t-51" value="" style="endArrow=classic;html=1;fontSize=10;exitX=0.5;exitY=0.11;exitDx=0;exitDy=0;exitPerimeter=0;" edge="1" parent="-J8hgq7mkh7S_dgd3K_y-1">
          <mxGeometry width="50" height="50" relative="1" as="geometry">
            <mxPoint x="177.5" y="1278.83" as="sourcePoint" />
            <mxPoint x="472" y="1278.83" as="targetPoint" />
          </mxGeometry>
        </mxCell>
        <mxCell id="Ohw_9S8v5fQraYpqyN4t-52" value="2.跳转用户授权页" style="edgeLabel;resizable=0;html=1;align=left;verticalAlign=bottom;" connectable="0" vertex="1" parent="-J8hgq7mkh7S_dgd3K_y-1">
          <mxGeometry x="191.5" y="1277.93" as="geometry" />
        </mxCell>
        <mxCell id="hmP1AsXg7uqCRYxo4U3T-1" value="" style="endArrow=classic;html=1;fontSize=10;exitX=0.471;exitY=0.487;exitDx=0;exitDy=0;exitPerimeter=0;" edge="1" parent="-J8hgq7mkh7S_dgd3K_y-1">
          <mxGeometry width="50" height="50" relative="1" as="geometry">
            <mxPoint x="469.97" y="1310.83" as="sourcePoint" />
            <mxPoint x="331.8103448275863" y="1310.83" as="targetPoint" />
          </mxGeometry>
        </mxCell>
        <mxCell id="hmP1AsXg7uqCRYxo4U3T-2" value="3.用户授权页获取微信授权" style="text;html=1;align=center;verticalAlign=middle;resizable=0;points=[];autosize=1;fontSize=10;" vertex="1" parent="-J8hgq7mkh7S_dgd3K_y-1">
          <mxGeometry x="340" y="1290.83" width="130" height="20" as="geometry" />
        </mxCell>
        <mxCell id="hmP1AsXg7uqCRYxo4U3T-3" value="4.微信授权成功" style="text;html=1;align=center;verticalAlign=middle;resizable=0;points=[];autosize=1;fontSize=10;" vertex="1" parent="-J8hgq7mkh7S_dgd3K_y-1">
          <mxGeometry x="359" y="1325.83" width="80" height="20" as="geometry" />
        </mxCell>
        <mxCell id="hmP1AsXg7uqCRYxo4U3T-4" value="" style="endArrow=classic;html=1;fontSize=10;exitX=0.543;exitY=0.501;exitDx=0;exitDy=0;exitPerimeter=0;" edge="1" parent="-J8hgq7mkh7S_dgd3K_y-1">
          <mxGeometry width="50" height="50" relative="1" as="geometry">
            <mxPoint x="335.01" y="1345.842" as="sourcePoint" />
            <mxPoint x="471.5" y="1345.842" as="targetPoint" />
          </mxGeometry>
        </mxCell>
        <mxCell id="hmP1AsXg7uqCRYxo4U3T-6" value="&lt;meta charset=&quot;utf-8&quot;&gt;&lt;span style=&quot;color: rgb(0, 0, 0); font-family: helvetica; font-size: 10px; font-style: normal; font-weight: 400; letter-spacing: normal; text-align: center; text-indent: 0px; text-transform: none; word-spacing: 0px; background-color: rgb(248, 249, 250); display: inline; float: none;&quot;&gt;1.用户静默登录失败，触发登录场景：点击商品加车，点击登录按钮&lt;/span&gt;" style="text;html=1;strokeColor=none;fillColor=none;align=center;verticalAlign=middle;whiteSpace=wrap;rounded=0;fontSize=10;" vertex="1" parent="-J8hgq7mkh7S_dgd3K_y-1">
          <mxGeometry x="75" y="1217.83" width="106" height="20" as="geometry" />
        </mxCell>
        <mxCell id="hmP1AsXg7uqCRYxo4U3T-15" value="" style="endArrow=classic;html=1;fontSize=10;exitX=0.514;exitY=0.509;exitDx=0;exitDy=0;exitPerimeter=0;entryX=0.506;entryY=0.504;entryDx=0;entryDy=0;entryPerimeter=0;" edge="1" parent="-J8hgq7mkh7S_dgd3K_y-1">
          <mxGeometry width="50" height="50" relative="1" as="geometry">
            <mxPoint x="472.98" y="1374.83" as="sourcePoint" />
            <mxPoint x="627.48" y="1374.9099999999999" as="targetPoint" />
          </mxGeometry>
        </mxCell>
        <mxCell id="hmP1AsXg7uqCRYxo4U3T-17" value="&lt;div style=&quot;text-align: center&quot;&gt;&lt;span&gt;&lt;font face=&quot;helvetica&quot;&gt;5.提供用户信息给接口，调静默登录&lt;/font&gt;&lt;/span&gt;&lt;/div&gt;&lt;div style=&quot;text-align: center&quot;&gt;&lt;span&gt;&lt;font face=&quot;helvetica&quot;&gt;&lt;br&gt;&lt;/font&gt;&lt;/span&gt;&lt;/div&gt;" style="text;whiteSpace=wrap;html=1;fontSize=10;" vertex="1" parent="-J8hgq7mkh7S_dgd3K_y-1">
          <mxGeometry x="487" y="1339.83" width="126" height="30" as="geometry" />
        </mxCell>
        <mxCell id="hmP1AsXg7uqCRYxo4U3T-43" value="" style="edgeStyle=segmentEdgeStyle;endArrow=classic;html=1;fontSize=10;entryX=0.5;entryY=0.606;entryDx=0;entryDy=0;entryPerimeter=0;" edge="1" parent="-J8hgq7mkh7S_dgd3K_y-1">
          <mxGeometry width="50" height="50" relative="1" as="geometry">
            <mxPoint x="627.0999999999999" y="1710.93" as="sourcePoint" />
            <mxPoint x="627" y="1730.9099999999999" as="targetPoint" />
            <Array as="points">
              <mxPoint x="657" y="1710.9299999999998" />
              <mxPoint x="657" y="1730.9299999999998" />
            </Array>
          </mxGeometry>
        </mxCell>
        <mxCell id="hmP1AsXg7uqCRYxo4U3T-44" value="&lt;span style=&quot;color: rgb(0 , 0 , 0) ; font-family: &amp;#34;helvetica&amp;#34; ; font-size: 10px ; font-style: normal ; font-weight: 400 ; letter-spacing: normal ; text-align: center ; text-indent: 0px ; text-transform: none ; word-spacing: 0px ; background-color: rgb(248 , 249 , 250) ; display: inline ; float: none&quot;&gt;11.是否注册京东账号&lt;/span&gt;" style="text;whiteSpace=wrap;html=1;fontSize=10;" vertex="1" parent="-J8hgq7mkh7S_dgd3K_y-1">
          <mxGeometry x="627" y="1689.83" width="150" height="25" as="geometry" />
        </mxCell>
        <mxCell id="hmP1AsXg7uqCRYxo4U3T-52" value="13.接口返回登录成功" style="text;html=1;align=center;verticalAlign=middle;resizable=0;points=[];autosize=1;fontSize=10;" vertex="1" parent="-J8hgq7mkh7S_dgd3K_y-1">
          <mxGeometry x="507" y="2043.7200000000003" width="110" height="20" as="geometry" />
        </mxCell>
        <mxCell id="hmP1AsXg7uqCRYxo4U3T-53" value="" style="endArrow=classic;html=1;fontSize=10;exitX=0.521;exitY=0.52;exitDx=0;exitDy=0;exitPerimeter=0;" edge="1" parent="-J8hgq7mkh7S_dgd3K_y-1">
          <mxGeometry width="50" height="50" relative="1" as="geometry">
            <mxPoint x="472.97" y="1612.83" as="sourcePoint" />
            <mxPoint x="330.4203448275862" y="1612.83" as="targetPoint" />
          </mxGeometry>
        </mxCell>
        <mxCell id="hmP1AsXg7uqCRYxo4U3T-54" value="8.获取手机号授权" style="text;html=1;align=center;verticalAlign=middle;resizable=0;points=[];autosize=1;fontSize=10;" vertex="1" parent="-J8hgq7mkh7S_dgd3K_y-1">
          <mxGeometry x="354.55999999999995" y="1593.83" width="90" height="20" as="geometry" />
        </mxCell>
        <mxCell id="hmP1AsXg7uqCRYxo4U3T-55" value="" style="endArrow=classic;html=1;fontSize=10;entryX=0.507;entryY=0.558;entryDx=0;entryDy=0;entryPerimeter=0;" edge="1" parent="-J8hgq7mkh7S_dgd3K_y-1">
          <mxGeometry width="50" height="50" relative="1" as="geometry">
            <mxPoint x="331.52380952380963" y="1646.8300000000002" as="sourcePoint" />
            <mxPoint x="471.99" y="1646.8300000000002" as="targetPoint" />
          </mxGeometry>
        </mxCell>
        <mxCell id="hmP1AsXg7uqCRYxo4U3T-56" value="9.手机号授权成功" style="text;html=1;align=center;verticalAlign=middle;resizable=0;points=[];autosize=1;fontSize=10;" vertex="1" parent="-J8hgq7mkh7S_dgd3K_y-1">
          <mxGeometry x="354.55999999999995" y="1627.83" width="90" height="20" as="geometry" />
        </mxCell>
        <mxCell id="hmP1AsXg7uqCRYxo4U3T-57" value="" style="endArrow=classic;html=1;fontSize=10;" edge="1" parent="-J8hgq7mkh7S_dgd3K_y-1">
          <mxGeometry width="50" height="50" relative="1" as="geometry">
            <mxPoint x="470.50380952380965" y="1674.8300000000002" as="sourcePoint" />
            <mxPoint x="627" y="1674.8300000000002" as="targetPoint" />
          </mxGeometry>
        </mxCell>
        <mxCell id="hmP1AsXg7uqCRYxo4U3T-58" value="10.调接口，手机号登录" style="text;html=1;align=center;verticalAlign=middle;resizable=0;points=[];autosize=1;fontSize=10;" vertex="1" parent="-J8hgq7mkh7S_dgd3K_y-1">
          <mxGeometry x="478.53999999999996" y="1655.83" width="120" height="20" as="geometry" />
        </mxCell>
        <mxCell id="hmP1AsXg7uqCRYxo4U3T-59" value="&lt;div style=&quot;text-align: center&quot;&gt;&lt;span&gt;&lt;font face=&quot;helvetica&quot;&gt;6.提供用户信息：头像昵称，unionID等&lt;/font&gt;&lt;/span&gt;&lt;/div&gt;" style="text;whiteSpace=wrap;html=1;fontSize=10;" vertex="1" parent="-J8hgq7mkh7S_dgd3K_y-1">
          <mxGeometry x="630" y="1382.83" width="156" height="30" as="geometry" />
        </mxCell>
        <mxCell id="hmP1AsXg7uqCRYxo4U3T-61" value="" style="endArrow=classic;html=1;fontSize=10;exitX=0.543;exitY=0.501;exitDx=0;exitDy=0;exitPerimeter=0;entryX=1;entryY=1;entryDx=0;entryDy=0;" edge="1" parent="-J8hgq7mkh7S_dgd3K_y-1">
          <mxGeometry width="50" height="50" relative="1" as="geometry">
            <mxPoint x="627" y="1415.832" as="sourcePoint" />
            <mxPoint x="786" y="1415.83" as="targetPoint" />
          </mxGeometry>
        </mxCell>
        <mxCell id="hmP1AsXg7uqCRYxo4U3T-69" value="" style="endArrow=classic;html=1;fontSize=10;" edge="1" parent="-J8hgq7mkh7S_dgd3K_y-1">
          <mxGeometry width="50" height="50" relative="1" as="geometry">
            <mxPoint x="176.5" y="1525.83" as="sourcePoint" />
            <mxPoint x="786" y="1525.83" as="targetPoint" />
          </mxGeometry>
        </mxCell>
        <mxCell id="hmP1AsXg7uqCRYxo4U3T-70" value="8.登录成功下发登录态，存到小程序缓存" style="text;html=1;align=center;verticalAlign=middle;resizable=0;points=[];autosize=1;fontSize=10;" vertex="1" parent="-J8hgq7mkh7S_dgd3K_y-1">
          <mxGeometry x="232.5" y="1470.83" width="190" height="20" as="geometry" />
        </mxCell>
        <mxCell id="hmP1AsXg7uqCRYxo4U3T-71" value="" style="endArrow=classic;html=1;fontSize=10;" edge="1" parent="-J8hgq7mkh7S_dgd3K_y-1">
          <mxGeometry width="50" height="50" relative="1" as="geometry">
            <mxPoint x="471" y="1490.83" as="sourcePoint" />
            <mxPoint x="176" y="1490.83" as="targetPoint" />
            <Array as="points">
              <mxPoint x="316.5" y="1490.83" />
            </Array>
          </mxGeometry>
        </mxCell>
        <mxCell id="hmP1AsXg7uqCRYxo4U3T-72" value="9.登录成功，接口请求cookie中带上pt_pin以及pt_key，登录成功回调里调接口进行用户打标" style="text;html=1;align=center;verticalAlign=middle;resizable=0;points=[];autosize=1;fontSize=10;" vertex="1" parent="-J8hgq7mkh7S_dgd3K_y-1">
          <mxGeometry x="176" y="1506.83" width="420" height="20" as="geometry" />
        </mxCell>
        <mxCell id="hmP1AsXg7uqCRYxo4U3T-73" value="" style="endArrow=classic;html=1;fontSize=10;exitX=0.488;exitY=0.55;exitDx=0;exitDy=0;exitPerimeter=0;" edge="1" parent="-J8hgq7mkh7S_dgd3K_y-1">
          <mxGeometry width="50" height="50" relative="1" as="geometry">
            <mxPoint x="626.04" y="1451.83" as="sourcePoint" />
            <mxPoint x="470.5" y="1451.83" as="targetPoint" />
          </mxGeometry>
        </mxCell>
        <mxCell id="hmP1AsXg7uqCRYxo4U3T-74" value="7.静默登录检验，登录成功" style="text;html=1;align=center;verticalAlign=middle;resizable=0;points=[];autosize=1;fontSize=10;" vertex="1" parent="-J8hgq7mkh7S_dgd3K_y-1">
          <mxGeometry x="475" y="1431.83" width="130" height="20" as="geometry" />
        </mxCell>
        <mxCell id="mUH_KSAL7D9li16hF1Gg-2" value="&lt;font color=&quot;#663300&quot;&gt;静默登录成功&lt;/font&gt;" style="shape=umlFrame;whiteSpace=wrap;html=1;strokeColor=#FFB570;strokeWidth=2;fillColor=none;gradientColor=none;fontSize=10;align=center;" vertex="1" parent="-J8hgq7mkh7S_dgd3K_y-1">
          <mxGeometry x="176" y="1430.83" width="630" height="110" as="geometry" />
        </mxCell>
        <mxCell id="mUH_KSAL7D9li16hF1Gg-3" value="" style="endArrow=classic;html=1;fontSize=10;exitX=0.5;exitY=0.491;exitDx=0;exitDy=0;exitPerimeter=0;" edge="1" parent="-J8hgq7mkh7S_dgd3K_y-1">
          <mxGeometry width="50" height="50" relative="1" as="geometry">
            <mxPoint x="627" y="1587.83" as="sourcePoint" />
            <mxPoint x="472.2222222222222" y="1587.83" as="targetPoint" />
          </mxGeometry>
        </mxCell>
        <mxCell id="mUH_KSAL7D9li16hF1Gg-4" value="7.静默校验失败，跳转登录页" style="text;html=1;align=center;verticalAlign=middle;resizable=0;points=[];autosize=1;fontSize=10;" vertex="1" parent="-J8hgq7mkh7S_dgd3K_y-1">
          <mxGeometry x="487" y="1566.5499999999997" width="140" height="20" as="geometry" />
        </mxCell>
        <mxCell id="mUH_KSAL7D9li16hF1Gg-8" value="未注册，进行注册" style="text;html=1;align=center;verticalAlign=middle;resizable=0;points=[];autosize=1;fontSize=10;" vertex="1" parent="-J8hgq7mkh7S_dgd3K_y-1">
          <mxGeometry x="535" y="1736.83" width="100" height="20" as="geometry" />
        </mxCell>
        <mxCell id="mUH_KSAL7D9li16hF1Gg-10" value="" style="edgeStyle=segmentEdgeStyle;endArrow=classic;html=1;fontSize=10;exitX=0.1;exitY=1.028;exitDx=0;exitDy=0;exitPerimeter=0;" edge="1" parent="-J8hgq7mkh7S_dgd3K_y-1">
          <mxGeometry width="50" height="50" relative="1" as="geometry">
            <mxPoint x="626" y="1755.4899999999998" as="sourcePoint" />
            <mxPoint x="627" y="1775.83" as="targetPoint" />
            <Array as="points">
              <mxPoint x="600" y="1755.83" />
              <mxPoint x="600" y="1775.83" />
            </Array>
          </mxGeometry>
        </mxCell>
        <mxCell id="mUH_KSAL7D9li16hF1Gg-15" value="" style="edgeStyle=segmentEdgeStyle;endArrow=classic;html=1;fontSize=10;entryX=0.5;entryY=0.606;entryDx=0;entryDy=0;entryPerimeter=0;" edge="1" parent="-J8hgq7mkh7S_dgd3K_y-1">
          <mxGeometry width="50" height="50" relative="1" as="geometry">
            <mxPoint x="627.0999999999999" y="1799.83" as="sourcePoint" />
            <mxPoint x="627" y="1819.81" as="targetPoint" />
            <Array as="points">
              <mxPoint x="657" y="1799.83" />
              <mxPoint x="657" y="1819.83" />
            </Array>
          </mxGeometry>
        </mxCell>
        <mxCell id="mUH_KSAL7D9li16hF1Gg-16" value="已注册" style="text;html=1;align=center;verticalAlign=middle;resizable=0;points=[];autosize=1;fontSize=10;" vertex="1" parent="-J8hgq7mkh7S_dgd3K_y-1">
          <mxGeometry x="621" y="1779.83" width="50" height="20" as="geometry" />
        </mxCell>
        <mxCell id="mUH_KSAL7D9li16hF1Gg-40" value="" style="rounded=1;arcSize=10;fillColor=none;gradientColor=none;strokeWidth=2;fontSize=10;align=center;strokeColor=#9AC7BF;" vertex="1" parent="-J8hgq7mkh7S_dgd3K_y-1">
          <mxGeometry x="520" y="1691.83" width="241" height="145" as="geometry" />
        </mxCell>
        <mxCell id="mUH_KSAL7D9li16hF1Gg-41" value="" style="edgeStyle=segmentEdgeStyle;endArrow=classic;html=1;fontSize=10;entryX=0.5;entryY=0.606;entryDx=0;entryDy=0;entryPerimeter=0;" edge="1" parent="-J8hgq7mkh7S_dgd3K_y-1">
          <mxGeometry width="50" height="50" relative="1" as="geometry">
            <mxPoint x="627.0999999999999" y="1881.9299999999998" as="sourcePoint" />
            <mxPoint x="627" y="1901.9099999999999" as="targetPoint" />
            <Array as="points">
              <mxPoint x="657" y="1881.9299999999998" />
              <mxPoint x="657" y="1901.9299999999998" />
            </Array>
          </mxGeometry>
        </mxCell>
        <mxCell id="mUH_KSAL7D9li16hF1Gg-42" value="&lt;span style=&quot;color: rgb(0 , 0 , 0) ; font-family: &amp;#34;helvetica&amp;#34; ; font-size: 10px ; font-style: normal ; font-weight: 400 ; letter-spacing: normal ; text-align: center ; text-indent: 0px ; text-transform: none ; word-spacing: 0px ; background-color: rgb(248 , 249 , 250) ; display: inline ; float: none&quot;&gt;12.账号是否风控&lt;/span&gt;" style="text;whiteSpace=wrap;html=1;fontSize=10;" vertex="1" parent="-J8hgq7mkh7S_dgd3K_y-1">
          <mxGeometry x="632" y="1858.83" width="150" height="24" as="geometry" />
        </mxCell>
        <mxCell id="mUH_KSAL7D9li16hF1Gg-43" value="" style="edgeStyle=segmentEdgeStyle;endArrow=classic;html=1;fontSize=10;entryX=0.5;entryY=0.606;entryDx=0;entryDy=0;entryPerimeter=0;" edge="1" parent="-J8hgq7mkh7S_dgd3K_y-1">
          <mxGeometry width="50" height="50" relative="1" as="geometry">
            <mxPoint x="627.0999999999999" y="2000.83" as="sourcePoint" />
            <mxPoint x="627" y="2020.81" as="targetPoint" />
            <Array as="points">
              <mxPoint x="657" y="2000.83" />
              <mxPoint x="657" y="2020.83" />
            </Array>
          </mxGeometry>
        </mxCell>
        <mxCell id="mUH_KSAL7D9li16hF1Gg-44" value="无风控" style="text;html=1;align=center;verticalAlign=middle;resizable=0;points=[];autosize=1;fontSize=10;" vertex="1" parent="-J8hgq7mkh7S_dgd3K_y-1">
          <mxGeometry x="621" y="1978.83" width="50" height="20" as="geometry" />
        </mxCell>
        <mxCell id="mUH_KSAL7D9li16hF1Gg-45" value="" style="endArrow=classic;html=1;fontSize=10;exitX=0.5;exitY=0.491;exitDx=0;exitDy=0;exitPerimeter=0;" edge="1" parent="-J8hgq7mkh7S_dgd3K_y-1">
          <mxGeometry width="50" height="50" relative="1" as="geometry">
            <mxPoint x="628.7799999999997" y="1933.2400000000002" as="sourcePoint" />
            <mxPoint x="474.0022222222224" y="1933.2400000000002" as="targetPoint" />
          </mxGeometry>
        </mxCell>
        <mxCell id="mUH_KSAL7D9li16hF1Gg-46" value="跳转风控页面" style="text;html=1;align=center;verticalAlign=middle;resizable=0;points=[];autosize=1;fontSize=10;" vertex="1" parent="-J8hgq7mkh7S_dgd3K_y-1">
          <mxGeometry x="523.78" y="1911.96" width="80" height="20" as="geometry" />
        </mxCell>
        <mxCell id="mUH_KSAL7D9li16hF1Gg-47" value="" style="endArrow=classic;html=1;fontSize=10;" edge="1" parent="-J8hgq7mkh7S_dgd3K_y-1">
          <mxGeometry width="50" height="50" relative="1" as="geometry">
            <mxPoint x="472.50380952380965" y="1967.83" as="sourcePoint" />
            <mxPoint x="629" y="1967.83" as="targetPoint" />
          </mxGeometry>
        </mxCell>
        <mxCell id="mUH_KSAL7D9li16hF1Gg-48" value="风控校验成功" style="text;html=1;align=center;verticalAlign=middle;resizable=0;points=[];autosize=1;fontSize=10;" vertex="1" parent="-J8hgq7mkh7S_dgd3K_y-1">
          <mxGeometry x="476.49999999999994" y="1948.83" width="80" height="20" as="geometry" />
        </mxCell>
        <mxCell id="mUH_KSAL7D9li16hF1Gg-49" value="" style="rounded=1;arcSize=10;fillColor=none;gradientColor=none;strokeWidth=2;fontSize=10;align=center;strokeColor=#9AC7BF;" vertex="1" parent="-J8hgq7mkh7S_dgd3K_y-1">
          <mxGeometry x="462" y="1855.46" width="298" height="179.37" as="geometry" />
        </mxCell>
        <mxCell id="mUH_KSAL7D9li16hF1Gg-50" value="" style="edgeStyle=segmentEdgeStyle;endArrow=classic;html=1;fontSize=10;entryX=0.5;entryY=0.606;entryDx=0;entryDy=0;entryPerimeter=0;" edge="1" parent="-J8hgq7mkh7S_dgd3K_y-1">
          <mxGeometry width="50" height="50" relative="1" as="geometry">
            <mxPoint x="625.0999999999999" y="512.47" as="sourcePoint" />
            <mxPoint x="625" y="532.45" as="targetPoint" />
            <Array as="points">
              <mxPoint x="655" y="512.47" />
              <mxPoint x="655" y="532.47" />
            </Array>
          </mxGeometry>
        </mxCell>
        <mxCell id="mUH_KSAL7D9li16hF1Gg-51" value="&lt;span style=&quot;color: rgb(0 , 0 , 0) ; font-family: &amp;#34;helvetica&amp;#34; ; font-size: 10px ; font-style: normal ; font-weight: 400 ; letter-spacing: normal ; text-align: center ; text-indent: 0px ; text-transform: none ; word-spacing: 0px ; background-color: rgb(248 , 249 , 250) ; display: inline ; float: none&quot;&gt;12.账号是否风控&lt;/span&gt;" style="text;whiteSpace=wrap;html=1;fontSize=10;" vertex="1" parent="-J8hgq7mkh7S_dgd3K_y-1">
          <mxGeometry x="630" y="489.37000000000006" width="150" height="24" as="geometry" />
        </mxCell>
        <mxCell id="mUH_KSAL7D9li16hF1Gg-52" value="" style="edgeStyle=segmentEdgeStyle;endArrow=classic;html=1;fontSize=10;entryX=0.5;entryY=0.606;entryDx=0;entryDy=0;entryPerimeter=0;" edge="1" parent="-J8hgq7mkh7S_dgd3K_y-1">
          <mxGeometry width="50" height="50" relative="1" as="geometry">
            <mxPoint x="625.0999999999999" y="631.3700000000001" as="sourcePoint" />
            <mxPoint x="625" y="651.3500000000001" as="targetPoint" />
            <Array as="points">
              <mxPoint x="655" y="631.3700000000001" />
              <mxPoint x="655" y="651.3700000000001" />
            </Array>
          </mxGeometry>
        </mxCell>
        <mxCell id="mUH_KSAL7D9li16hF1Gg-53" value="无风控" style="text;html=1;align=center;verticalAlign=middle;resizable=0;points=[];autosize=1;fontSize=10;" vertex="1" parent="-J8hgq7mkh7S_dgd3K_y-1">
          <mxGeometry x="619" y="609.3700000000001" width="50" height="20" as="geometry" />
        </mxCell>
        <mxCell id="mUH_KSAL7D9li16hF1Gg-54" value="" style="endArrow=classic;html=1;fontSize=10;exitX=0.5;exitY=0.491;exitDx=0;exitDy=0;exitPerimeter=0;" edge="1" parent="-J8hgq7mkh7S_dgd3K_y-1">
          <mxGeometry width="50" height="50" relative="1" as="geometry">
            <mxPoint x="626.7799999999997" y="563.7800000000004" as="sourcePoint" />
            <mxPoint x="472.0022222222224" y="563.7800000000004" as="targetPoint" />
          </mxGeometry>
        </mxCell>
        <mxCell id="mUH_KSAL7D9li16hF1Gg-55" value="跳转风控页面" style="text;html=1;align=center;verticalAlign=middle;resizable=0;points=[];autosize=1;fontSize=10;" vertex="1" parent="-J8hgq7mkh7S_dgd3K_y-1">
          <mxGeometry x="521.78" y="542.5000000000002" width="80" height="20" as="geometry" />
        </mxCell>
        <mxCell id="mUH_KSAL7D9li16hF1Gg-56" value="" style="endArrow=classic;html=1;fontSize=10;" edge="1" parent="-J8hgq7mkh7S_dgd3K_y-1">
          <mxGeometry width="50" height="50" relative="1" as="geometry">
            <mxPoint x="470.50380952380965" y="598.3700000000001" as="sourcePoint" />
            <mxPoint x="627" y="598.3700000000001" as="targetPoint" />
          </mxGeometry>
        </mxCell>
        <mxCell id="mUH_KSAL7D9li16hF1Gg-57" value="风控校验成功" style="text;html=1;align=center;verticalAlign=middle;resizable=0;points=[];autosize=1;fontSize=10;" vertex="1" parent="-J8hgq7mkh7S_dgd3K_y-1">
          <mxGeometry x="474.5" y="579.3700000000001" width="80" height="20" as="geometry" />
        </mxCell>
        <mxCell id="mUH_KSAL7D9li16hF1Gg-58" value="" style="rounded=1;arcSize=10;fillColor=none;gradientColor=none;strokeWidth=2;fontSize=10;align=center;strokeColor=#9AC7BF;" vertex="1" parent="-J8hgq7mkh7S_dgd3K_y-1">
          <mxGeometry x="460" y="480.00000000000017" width="298" height="179.37" as="geometry" />
        </mxCell>
        <mxCell id="bm_QzK98Cmb5f2g9V8tH-0" value="&lt;font color=&quot;#330066&quot;&gt;用户静默登录成功&lt;/font&gt;" style="shape=umlFrame;whiteSpace=wrap;html=1;strokeWidth=2;fillColor=none;gradientColor=none;fontSize=10;align=center;strokeColor=#B5739D;" vertex="1" parent="-J8hgq7mkh7S_dgd3K_y-1">
          <mxGeometry x="-1" y="129.5" width="811" height="670.5" as="geometry" />
        </mxCell>
        <mxCell id="bm_QzK98Cmb5f2g9V8tH-1" value="&lt;font color=&quot;#006600&quot;&gt;退出登录&lt;/font&gt;" style="shape=umlFrame;whiteSpace=wrap;html=1;strokeColor=#97D077;strokeWidth=2;fillColor=none;gradientColor=none;fontSize=10;align=center;" vertex="1" parent="-J8hgq7mkh7S_dgd3K_y-1">
          <mxGeometry y="910.83" width="810" height="169.17" as="geometry" />
        </mxCell>
        <mxCell id="bm_QzK98Cmb5f2g9V8tH-2" value="" style="endArrow=classic;html=1;fontSize=10;" edge="1" parent="-J8hgq7mkh7S_dgd3K_y-1">
          <mxGeometry width="50" height="50" relative="1" as="geometry">
            <mxPoint x="176.5" y="2140" as="sourcePoint" />
            <mxPoint x="786" y="2140" as="targetPoint" />
          </mxGeometry>
        </mxCell>
        <mxCell id="bm_QzK98Cmb5f2g9V8tH-3" value="14.登录成功下发登录态，存到小程序缓存" style="text;html=1;align=center;verticalAlign=middle;resizable=0;points=[];autosize=1;fontSize=10;" vertex="1" parent="-J8hgq7mkh7S_dgd3K_y-1">
          <mxGeometry x="227.5" y="2082" width="200" height="20" as="geometry" />
        </mxCell>
        <mxCell id="bm_QzK98Cmb5f2g9V8tH-4" value="" style="endArrow=classic;html=1;fontSize=10;" edge="1" parent="-J8hgq7mkh7S_dgd3K_y-1">
          <mxGeometry width="50" height="50" relative="1" as="geometry">
            <mxPoint x="471" y="2102" as="sourcePoint" />
            <mxPoint x="176" y="2102" as="targetPoint" />
            <Array as="points">
              <mxPoint x="316.5" y="2102" />
            </Array>
          </mxGeometry>
        </mxCell>
        <mxCell id="bm_QzK98Cmb5f2g9V8tH-5" value="15.登录成功，接口请求cookie中带上pt_pin以及pt_key，登录成功回调里调接口进行用户打标" style="text;html=1;align=center;verticalAlign=middle;resizable=0;points=[];autosize=1;fontSize=10;" vertex="1" parent="-J8hgq7mkh7S_dgd3K_y-1">
          <mxGeometry x="171" y="2121" width="430" height="20" as="geometry" />
        </mxCell>
        <mxCell id="bm_QzK98Cmb5f2g9V8tH-6" value="" style="endArrow=classic;html=1;fontSize=10;exitX=0.488;exitY=0.55;exitDx=0;exitDy=0;exitPerimeter=0;" edge="1" parent="-J8hgq7mkh7S_dgd3K_y-1">
          <mxGeometry width="50" height="50" relative="1" as="geometry">
            <mxPoint x="626.04" y="2066" as="sourcePoint" />
            <mxPoint x="470.5" y="2066" as="targetPoint" />
          </mxGeometry>
        </mxCell>
        <mxCell id="vdqfzpg6haUaIoho07WQ-0" value="&lt;font color=&quot;#666600&quot;&gt;点击登录&lt;/font&gt;" style="shape=umlFrame;whiteSpace=wrap;html=1;strokeWidth=2;fillColor=none;gradientColor=none;fontSize=10;align=center;strokeColor=#FFD966;" vertex="1" parent="-J8hgq7mkh7S_dgd3K_y-1">
          <mxGeometry y="1180" width="810" height="980" as="geometry" />
        </mxCell>
      </root>
    </mxGraphModel>
  </diagram>
</mxfile>
